<mxfile host="app.diagrams.net" modified="2024-03-08T02:33:14.804Z" agent="Mozilla/5.0 (Windows NT 10.0; Win64; x64) AppleWebKit/537.36 (KHTML, like Gecko) Chrome/122.0.0.0 Safari/537.36" etag="0WbCxBTszDIdxRenANjN" version="24.0.2" type="google">
  <diagram name="PÃ¡gina-1" id="OjZT7pI5maj-f8U6zp7q">
    <mxGraphModel dx="1035" dy="1691" grid="1" gridSize="10" guides="1" tooltips="1" connect="1" arrows="1" fold="1" page="1" pageScale="1" pageWidth="827" pageHeight="1169" math="0" shadow="0">
      <root>
        <mxCell id="0" />
        <mxCell id="1" parent="0" />
        <mxCell id="cxyJaT6dFI7wuqc5qWj--47" value="Pagamento" style="swimlane;startSize=20;horizontal=0;html=1;whiteSpace=wrap;" vertex="1" parent="1">
          <mxGeometry y="-10" width="820" height="330" as="geometry" />
        </mxCell>
        <mxCell id="cxyJaT6dFI7wuqc5qWj--3" value="Identificar forma de pagamento" style="points=[[0.25,0,0],[0.5,0,0],[0.75,0,0],[1,0.25,0],[1,0.5,0],[1,0.75,0],[0.75,1,0],[0.5,1,0],[0.25,1,0],[0,0.75,0],[0,0.5,0],[0,0.25,0]];shape=mxgraph.bpmn.task;whiteSpace=wrap;rectStyle=rounded;size=10;html=1;container=1;expand=0;collapsible=0;taskMarker=abstract;" vertex="1" parent="cxyJaT6dFI7wuqc5qWj--47">
          <mxGeometry x="130" y="120" width="100" height="80" as="geometry" />
        </mxCell>
        <mxCell id="cxyJaT6dFI7wuqc5qWj--4" value="24h" style="points=[[0.145,0.145,0],[0.5,0,0],[0.855,0.145,0],[1,0.5,0],[0.855,0.855,0],[0.5,1,0],[0.145,0.855,0],[0,0.5,0]];shape=mxgraph.bpmn.event;html=1;verticalLabelPosition=bottom;labelBackgroundColor=#ffffff;verticalAlign=top;align=center;perimeter=ellipsePerimeter;outlineConnect=0;aspect=fixed;outline=standard;symbol=timer;fillColor=#dae8fc;strokeColor=#6c8ebf;" vertex="1" parent="cxyJaT6dFI7wuqc5qWj--47">
          <mxGeometry x="260" y="136" width="50" height="50" as="geometry" />
        </mxCell>
        <mxCell id="cxyJaT6dFI7wuqc5qWj--12" style="edgeStyle=orthogonalEdgeStyle;rounded=0;orthogonalLoop=1;jettySize=auto;html=1;entryX=0;entryY=0.5;entryDx=0;entryDy=0;entryPerimeter=0;" edge="1" parent="cxyJaT6dFI7wuqc5qWj--47" target="cxyJaT6dFI7wuqc5qWj--3">
          <mxGeometry relative="1" as="geometry">
            <mxPoint x="80" y="160.0000000000001" as="sourcePoint" />
          </mxGeometry>
        </mxCell>
        <mxCell id="cxyJaT6dFI7wuqc5qWj--20" value="Pagamento processado" style="points=[[0.25,0,0],[0.5,0,0],[0.75,0,0],[1,0.25,0],[1,0.5,0],[1,0.75,0],[0.75,1,0],[0.5,1,0],[0.25,1,0],[0,0.75,0],[0,0.5,0],[0,0.25,0]];shape=mxgraph.bpmn.task;whiteSpace=wrap;rectStyle=rounded;size=10;html=1;container=1;expand=0;collapsible=0;taskMarker=abstract;" vertex="1" parent="cxyJaT6dFI7wuqc5qWj--47">
          <mxGeometry x="390" y="220" width="96" height="80" as="geometry" />
        </mxCell>
        <mxCell id="cxyJaT6dFI7wuqc5qWj--23" value="" style="points=[[0.25,0.25,0],[0.5,0,0],[0.75,0.25,0],[1,0.5,0],[0.75,0.75,0],[0.5,1,0],[0.25,0.75,0],[0,0.5,0]];shape=mxgraph.bpmn.gateway2;html=1;verticalLabelPosition=bottom;labelBackgroundColor=#ffffff;verticalAlign=top;align=center;perimeter=rhombusPerimeter;outlineConnect=0;outline=none;symbol=none;" vertex="1" parent="cxyJaT6dFI7wuqc5qWj--47">
          <mxGeometry x="330" y="135" width="50" height="50" as="geometry" />
        </mxCell>
        <mxCell id="cxyJaT6dFI7wuqc5qWj--24" style="edgeStyle=orthogonalEdgeStyle;rounded=0;orthogonalLoop=1;jettySize=auto;html=1;entryX=0;entryY=0.5;entryDx=0;entryDy=0;entryPerimeter=0;" edge="1" parent="cxyJaT6dFI7wuqc5qWj--47" source="cxyJaT6dFI7wuqc5qWj--3" target="cxyJaT6dFI7wuqc5qWj--4">
          <mxGeometry relative="1" as="geometry">
            <mxPoint x="250" y="160" as="targetPoint" />
          </mxGeometry>
        </mxCell>
        <mxCell id="cxyJaT6dFI7wuqc5qWj--26" style="edgeStyle=orthogonalEdgeStyle;rounded=0;orthogonalLoop=1;jettySize=auto;html=1;entryX=0;entryY=0.5;entryDx=0;entryDy=0;entryPerimeter=0;" edge="1" parent="cxyJaT6dFI7wuqc5qWj--47" source="cxyJaT6dFI7wuqc5qWj--4" target="cxyJaT6dFI7wuqc5qWj--23">
          <mxGeometry relative="1" as="geometry" />
        </mxCell>
        <mxCell id="cxyJaT6dFI7wuqc5qWj--37" style="edgeStyle=orthogonalEdgeStyle;rounded=0;orthogonalLoop=1;jettySize=auto;html=1;entryX=0;entryY=0.5;entryDx=0;entryDy=0;entryPerimeter=0;exitX=0.5;exitY=0;exitDx=0;exitDy=0;exitPerimeter=0;" edge="1" parent="cxyJaT6dFI7wuqc5qWj--47" source="cxyJaT6dFI7wuqc5qWj--23" target="cxyJaT6dFI7wuqc5qWj--27">
          <mxGeometry relative="1" as="geometry">
            <mxPoint x="380" y="79.99999999999989" as="targetPoint" />
            <Array as="points">
              <mxPoint x="355" y="80" />
            </Array>
          </mxGeometry>
        </mxCell>
        <mxCell id="cxyJaT6dFI7wuqc5qWj--41" style="edgeStyle=orthogonalEdgeStyle;rounded=0;orthogonalLoop=1;jettySize=auto;html=1;entryX=0;entryY=0.5;entryDx=0;entryDy=0;entryPerimeter=0;exitX=0.5;exitY=1;exitDx=0;exitDy=0;exitPerimeter=0;" edge="1" parent="cxyJaT6dFI7wuqc5qWj--47" source="cxyJaT6dFI7wuqc5qWj--23" target="cxyJaT6dFI7wuqc5qWj--20">
          <mxGeometry relative="1" as="geometry" />
        </mxCell>
        <mxCell id="cxyJaT6dFI7wuqc5qWj--1" value="Pedido Confirmado" style="points=[[0.145,0.145,0],[0.5,0,0],[0.855,0.145,0],[1,0.5,0],[0.855,0.855,0],[0.5,1,0],[0.145,0.855,0],[0,0.5,0]];shape=mxgraph.bpmn.event;html=1;verticalLabelPosition=bottom;labelBackgroundColor=#ffffff;verticalAlign=top;align=center;perimeter=ellipsePerimeter;outlineConnect=0;aspect=fixed;outline=standard;symbol=general;fillColor=#d5e8d4;strokeColor=#82b366;" vertex="1" parent="cxyJaT6dFI7wuqc5qWj--47">
          <mxGeometry x="50" y="135" width="50" height="50" as="geometry" />
        </mxCell>
        <mxCell id="cxyJaT6dFI7wuqc5qWj--27" value="Pagamento Recusado" style="points=[[0.25,0,0],[0.5,0,0],[0.75,0,0],[1,0.25,0],[1,0.5,0],[1,0.75,0],[0.75,1,0],[0.5,1,0],[0.25,1,0],[0,0.75,0],[0,0.5,0],[0,0.25,0]];shape=mxgraph.bpmn.task;whiteSpace=wrap;rectStyle=rounded;size=10;html=1;container=1;expand=0;collapsible=0;taskMarker=abstract;" vertex="1" parent="cxyJaT6dFI7wuqc5qWj--47">
          <mxGeometry x="369" y="40" width="96" height="80" as="geometry" />
        </mxCell>
        <mxCell id="cxyJaT6dFI7wuqc5qWj--44" value="Desmontar pedido" style="points=[[0.25,0,0],[0.5,0,0],[0.75,0,0],[1,0.25,0],[1,0.5,0],[1,0.75,0],[0.75,1,0],[0.5,1,0],[0.25,1,0],[0,0.75,0],[0,0.5,0],[0,0.25,0]];shape=mxgraph.bpmn.task;whiteSpace=wrap;rectStyle=rounded;size=10;html=1;container=1;expand=0;collapsible=0;taskMarker=abstract;" vertex="1" parent="cxyJaT6dFI7wuqc5qWj--47">
          <mxGeometry x="486" y="40" width="84" height="80" as="geometry" />
        </mxCell>
        <mxCell id="cxyJaT6dFI7wuqc5qWj--46" style="edgeStyle=orthogonalEdgeStyle;rounded=0;orthogonalLoop=1;jettySize=auto;html=1;entryX=0;entryY=0.5;entryDx=0;entryDy=0;entryPerimeter=0;exitX=1;exitY=0.5;exitDx=0;exitDy=0;exitPerimeter=0;" edge="1" parent="cxyJaT6dFI7wuqc5qWj--47" source="cxyJaT6dFI7wuqc5qWj--27" target="cxyJaT6dFI7wuqc5qWj--44">
          <mxGeometry relative="1" as="geometry">
            <mxPoint x="476" y="80.00000000000011" as="sourcePoint" />
            <mxPoint x="506" y="79.99999999999989" as="targetPoint" />
          </mxGeometry>
        </mxCell>
        <mxCell id="cxyJaT6dFI7wuqc5qWj--29" value="Notificar Cliente" style="points=[[0.25,0,0],[0.5,0,0],[0.75,0,0],[1,0.25,0],[1,0.5,0],[1,0.75,0],[0.75,1,0],[0.5,1,0],[0.25,1,0],[0,0.75,0],[0,0.5,0],[0,0.25,0]];shape=mxgraph.bpmn.task;whiteSpace=wrap;rectStyle=rounded;size=10;html=1;container=1;expand=0;collapsible=0;taskMarker=abstract;" vertex="1" parent="cxyJaT6dFI7wuqc5qWj--47">
          <mxGeometry x="590" y="40" width="86" height="80" as="geometry" />
        </mxCell>
        <mxCell id="cxyJaT6dFI7wuqc5qWj--45" style="edgeStyle=orthogonalEdgeStyle;rounded=0;orthogonalLoop=1;jettySize=auto;html=1;exitX=1;exitY=0.5;exitDx=0;exitDy=0;exitPerimeter=0;entryX=0;entryY=0.5;entryDx=0;entryDy=0;entryPerimeter=0;" edge="1" parent="cxyJaT6dFI7wuqc5qWj--47" source="cxyJaT6dFI7wuqc5qWj--44" target="cxyJaT6dFI7wuqc5qWj--29">
          <mxGeometry relative="1" as="geometry">
            <mxPoint x="603" y="80" as="sourcePoint" />
            <mxPoint x="613.9999999999998" y="80.00000000000011" as="targetPoint" />
          </mxGeometry>
        </mxCell>
        <mxCell id="cxyJaT6dFI7wuqc5qWj--11" value="Enviar Produto" style="points=[[0.25,0,0],[0.5,0,0],[0.75,0,0],[1,0.25,0],[1,0.5,0],[1,0.75,0],[0.75,1,0],[0.5,1,0],[0.25,1,0],[0,0.75,0],[0,0.5,0],[0,0.25,0]];shape=mxgraph.bpmn.task;whiteSpace=wrap;rectStyle=rounded;size=10;html=1;container=1;expand=0;collapsible=0;taskMarker=abstract;isLoopSub=1;" vertex="1" parent="cxyJaT6dFI7wuqc5qWj--47">
          <mxGeometry x="520" y="220" width="120" height="80" as="geometry" />
        </mxCell>
        <mxCell id="cxyJaT6dFI7wuqc5qWj--43" style="edgeStyle=orthogonalEdgeStyle;rounded=0;orthogonalLoop=1;jettySize=auto;html=1;entryX=0;entryY=0.5;entryDx=0;entryDy=0;entryPerimeter=0;" edge="1" parent="cxyJaT6dFI7wuqc5qWj--47" source="cxyJaT6dFI7wuqc5qWj--11" target="cxyJaT6dFI7wuqc5qWj--13">
          <mxGeometry relative="1" as="geometry" />
        </mxCell>
        <mxCell id="cxyJaT6dFI7wuqc5qWj--13" value="" style="points=[[0.25,0.25,0],[0.5,0,0],[0.75,0.25,0],[1,0.5,0],[0.75,0.75,0],[0.5,1,0],[0.25,0.75,0],[0,0.5,0]];shape=mxgraph.bpmn.gateway2;html=1;verticalLabelPosition=bottom;labelBackgroundColor=#ffffff;verticalAlign=top;align=center;perimeter=rhombusPerimeter;outlineConnect=0;outline=none;symbol=none;" vertex="1" parent="cxyJaT6dFI7wuqc5qWj--47">
          <mxGeometry x="690" y="235" width="50" height="50" as="geometry" />
        </mxCell>
        <mxCell id="cxyJaT6dFI7wuqc5qWj--39" style="edgeStyle=orthogonalEdgeStyle;rounded=0;orthogonalLoop=1;jettySize=auto;html=1;entryX=0;entryY=0.5;entryDx=0;entryDy=0;entryPerimeter=0;" edge="1" parent="cxyJaT6dFI7wuqc5qWj--47" source="cxyJaT6dFI7wuqc5qWj--13" target="cxyJaT6dFI7wuqc5qWj--18">
          <mxGeometry relative="1" as="geometry" />
        </mxCell>
        <mxCell id="cxyJaT6dFI7wuqc5qWj--18" value="FIM" style="points=[[0.145,0.145,0],[0.5,0,0],[0.855,0.145,0],[1,0.5,0],[0.855,0.855,0],[0.5,1,0],[0.145,0.855,0],[0,0.5,0]];shape=mxgraph.bpmn.event;html=1;verticalLabelPosition=bottom;labelBackgroundColor=#ffffff;verticalAlign=top;align=center;perimeter=ellipsePerimeter;outlineConnect=0;aspect=fixed;outline=end;symbol=terminate2;fillColor=#f8cecc;strokeColor=#b85450;" vertex="1" parent="cxyJaT6dFI7wuqc5qWj--47">
          <mxGeometry x="760" y="235" width="50" height="50" as="geometry" />
        </mxCell>
        <mxCell id="cxyJaT6dFI7wuqc5qWj--42" style="edgeStyle=orthogonalEdgeStyle;rounded=0;orthogonalLoop=1;jettySize=auto;html=1;" edge="1" parent="cxyJaT6dFI7wuqc5qWj--47" source="cxyJaT6dFI7wuqc5qWj--20" target="cxyJaT6dFI7wuqc5qWj--11">
          <mxGeometry relative="1" as="geometry" />
        </mxCell>
        <mxCell id="cxyJaT6dFI7wuqc5qWj--57" style="edgeStyle=orthogonalEdgeStyle;rounded=0;orthogonalLoop=1;jettySize=auto;html=1;entryX=0.5;entryY=0;entryDx=0;entryDy=0;entryPerimeter=0;" edge="1" parent="cxyJaT6dFI7wuqc5qWj--47" source="cxyJaT6dFI7wuqc5qWj--29" target="cxyJaT6dFI7wuqc5qWj--13">
          <mxGeometry relative="1" as="geometry" />
        </mxCell>
      </root>
    </mxGraphModel>
  </diagram>
</mxfile>
